<?xml version="1.0" encoding="utf-8"?>
<!-- Generator: Adobe Illustrator 25.0.0, SVG Export Plug-In . SVG Version: 6.00 Build 0)  -->
<svg version="1.1" id="Layer_1" xmlns="http://www.w3.org/2000/svg" xmlns:xlink="http://www.w3.org/1999/xlink" x="0px" y="0px"
	 viewBox="0 0 71.7 71.4" style="enable-background:new 0 0 71.7 71.4;" xml:space="preserve">
<style type="text/css">
	.st0{fill:#2259A7;}
</style>
<path class="st0" d="M70.1,62.2L43.6,35.7L69.9,9.4c2.1-2.1,2.1-5.6,0-7.8c-2.1-2.1-5.6-2.1-7.8,0L35.8,27.8L9.5,1.6
	c-2.1-2.1-5.6-2.1-7.8,0s-2.1,5.6,0,7.8l26.4,26.4L1.6,62.2c-2.1,2.1-2.1,5.6,0,7.8c1.1,1.1,2.5,1.6,3.9,1.6s2.8-0.6,3.9-1.6
	l26.5-26.5l26.5,26.5c1.1,1.1,2.5,1.6,3.9,1.6s2.8-0.6,3.9-1.6C72.2,67.7,72.2,64.3,70.1,62.2z"/>
</svg>
