<svg xmlns="http://www.w3.org/2000/svg" width="1920" height="1080" baseProfile="tiny" version="1.2" viewBox="0 0 1920 1080">
  <defs/>
  <path d="M0 0h1920v1080H0z"/>
  <g fill="#E5B13A">
    <path d="M620 524V266H451a3 3 0 00-3 3.35l64.97 87.17.56.74c8.68 11.53 16.47 24.21 16.47 52.4 0 32.34-12.1 61.81-34.06 83C475 512.88 447.08 524 417.34 524H56V382h298.33c1.5 0 1.67-2.1 1.67-3v-.22c-8.18-9.7-53.68-63.63-62.9-74.7l-.36-.43-.34-.45c-8.64-11.52-16.4-24.26-16.4-53.2 0-32.31 11.88-61.99 33.44-83.56A110.32 110.32 0 01388 134h538v132H762v258H620zM1173.94 524l-16-50h-133.88l-16 50h-140.3L994 134h191.91l128.5 390h-140.47zm-56.58-168L1091 277.82 1064.64 356h52.72zM1630 524c-16.58 0-31.61-5.92-44.67-17.6-22.18-19.85-60.6-55.97-89.33-83.15V524h-148V134h254c71.68 0 130 58.32 130 130 0 46.88-25.49 89.3-64.85 112.15 3.44 3.66 6.36 5.85 12.85 5.85h184v142h-234zm-57-234c10.48 0 19-8.52 19-19s-8.52-19-19-19h-77v38h77zM399.25 936L343.5 772.26 287.75 936h-97.7L62.66 546h143.39l32.78 102.42L274.34 546h138.32l35.5 102.42L480.95 546h143.39L496.96 936zM869.94 936l-16-50H720.06l-16 50h-140.3L690 546h191.92l128.5 390H869.93zm-56.58-168L787 689.82 760.64 768h52.72zM1330 936c-16.58 0-31.61-5.92-44.67-17.6-22.18-19.85-60.6-55.97-89.33-83.16V936h-148V546h254c71.68 0 130 58.32 130 130 0 46.88-25.49 89.3-64.85 112.15 3.44 3.66 6.36 5.85 12.85 5.85h212.33c1.5 0 1.67-2.1 1.67-3v-.22c-8.18-9.7-53.68-63.63-62.9-74.7l-.36-.43-.34-.45c-8.64-11.52-16.4-24.26-16.4-53.2 0-32.31 11.88-61.99 33.44-83.56A110.32 110.32 0 011626 546h238v132h-175a3 3 0 00-3 3.35l64.97 87.17.56.74c8.68 11.53 16.47 24.21 16.47 52.4 0 32.33-12.1 61.81-34.06 83-20.94 20.21-48.85 31.34-78.6 31.34H1330zm-57-234c10.48 0 19-8.52 19-19s-8.52-19-19-19h-77v38h77z"/>
  </g>
  <path d="M904 156H388c-48 0-90 38-90 94 0 24 6 32 12 40 10 12 64 76 64 76 1.7 2.26 4 6 4 13 0 13.8-9.86 25-23.67 25H78v98h339.33c48 0 90.67-36.33 90.67-92.33 0-24-6.67-32-12.67-40L430 282c-1.7-2.26-4-6-4-13a25 25 0 0125-25h191v258h98V244h164v-88zM1170 156h-160L898 502h94l16-50h166l16 50h94l-114-346zm-136 222l57-169.03L1148 378h-114zM1680 404c-16 0-24.3-7.72-30-14l-20-22c45.94-12.42 80-54.13 80-104 0-59.65-48.35-108-108-108h-232v346h104V372s88 84 126 118c4.22 3.77 14 12 30 12h212v-98h-162zm-206-174h99a41 41 0 110 82h-99v-82zM497 568l-48 150-52-150H290l-52 150-48-150H93l113 346h66l71.5-210L415 914h66l113-346zM866 568H706L594 914h94l16-50h166l16 50h94L866 568zM730 790l57-169.03L844 790H730zM1689 656h153v-88h-216c-48 0-90 38-90 94 0 24 6 32 12 40 10 12 64 76 64 76 1.7 2.26 4 6 4 13 0 13.8-9.86 25-23.67 25H1380c-16 0-24.3-7.72-30-14l-20-22c45.94-12.42 80-54.13 80-104 0-59.65-48.35-108-108-108h-232v346h104V784s88 84 126 118c4.22 3.77 14 12 30 12h325.33c48 0 90.67-36.33 90.67-92.33 0-24-6.67-32-12.67-40L1668 694c-1.7-2.26-4-6-4-13a25 25 0 0125-25zm-416 68h-99v-82h99a41 41 0 110 82z"/>
</svg>
